<?xml version="1.0" encoding="utf-8"?>
<!DOCTYPE svg PUBLIC "-//W3C//DTD SVG 1.0//EN" "http://www.w3.org/TR/2001/REC-SVG-20010904/DTD/svg10.dtd">
<svg version="1.0" xmlns="http://www.w3.org/2000/svg" width="270px" height="270px" viewBox="0 0 270 270" preserveAspectRatio="xMidYMid meet">
 <g fill="#ecf5fa">
  <path d="M 126.30 268.95 c -1.53 -0.11 -4.19 -0.40 -5.93 -0.63 -1.71 -0.24 -3.59 -0.42 -4.11 -0.42 -1.11 0 -2.08 -0.76 -1 -0.82 0.58 0 0.61 -0.03 0.11 -0.24 -0.98 -0.40 0.21 -0.58 1.87 -0.29 2.35 0.42 11.34 1.34 13.29 1.34 2.29 0 3.69 0.26 3.69 0.66 0 0.69 -2.16 0.79 -7.91 0.40 z "/>
  <path d="M 82.63 257.05 c -1.87 -0.87 -3.56 -1.56 -3.77 -1.56 -0.71 0 -3.27 -1.42 -3.40 -1.90 -0.05 -0.26 -0.21 -0.47 -0.34 -0.47 -0.13 0 -0.24 -0.11 -0.24 -0.26 0 -0.66 1.85 -0.13 4.96 1.40 1.85 0.92 4.27 2.08 5.41 2.56 1.37 0.61 2.03 1.03 2.03 1.34 0 0.76 -1.11 0.50 -4.64 -1.11 z "/>
  <path d="M 11.44 181.85 c -0.16 -0.18 -0.50 -0.92 -0.76 -1.63 -0.26 -0.74 -0.71 -1.61 -0.98 -1.95 -0.66 -0.87 -0.55 -2.72 0.16 -2.61 0.34 0.05 0.74 0.74 1.37 2.45 1.11 2.93 1.21 4.88 0.21 3.74 z "/>
  <path d="M 267.55 136.66 c 0.05 -3.74 0.16 -7.22 0.21 -7.73 0.08 -0.50 0.26 -1.87 0.45 -3.03 0.50 -3.45 0.40 -7.04 -0.29 -10.05 -0.58 -2.48 -0.69 -2.69 -1.48 -3.11 -0.74 -0.40 -0.90 -0.69 -1.16 -1.95 -0.40 -2 -0.37 -2.69 0.11 -2.69 0.21 0 0.40 0.18 0.40 0.42 0 0.21 0.11 0.34 0.24 0.24 0.16 -0.08 0.40 0.11 0.55 0.42 0.18 0.34 0.47 0.50 0.76 0.42 0.63 -0.16 1.48 1.61 1.58 3.24 0.08 1.40 0.55 2.16 0.84 1.40 0.11 -0.26 0.21 4.43 0.21 10.42 0.03 7.49 -0.05 10.86 -0.26 10.86 -0.13 0 -0.18 0.13 -0.11 0.26 0.08 0.16 0.03 0.26 -0.16 0.26 -0.18 0 -0.24 0.08 -0.16 0.16 0.08 0.11 0.05 0.37 -0.08 0.61 -0.13 0.24 -0.29 1.50 -0.40 2.79 -0.18 2.45 -0.55 3.82 -1.08 3.82 -0.21 0 -0.26 -1.90 -0.18 -6.78 z "/>
  <path d="M 2.43 139.22 c -0.40 -0.63 -0.45 -6.14 -0.05 -6.88 0.63 -1.13 0.79 -0.40 0.79 3.45 0 2.19 -0.08 3.96 -0.21 3.96 -0.11 0 -0.34 -0.24 -0.53 -0.53 z "/>
  <path d="M 4.51 111.45 c 0.05 -0.63 0 -1.27 -0.11 -1.42 -0.21 -0.34 0.90 -2.50 1.34 -2.66 0.42 -0.13 0.42 1.32 0 3.53 -0.24 1.37 -0.40 1.69 -0.79 1.69 -0.45 0 -0.50 -0.16 -0.45 -1.13 z "/>
  <path d="M 202.90 94.87 c 0.05 -0.47 0.24 -1.29 0.40 -1.79 0.13 -0.50 0.26 -1.58 0.26 -2.37 0 -1.82 0.21 -2.64 0.69 -2.64 0.29 0 0.37 0.58 0.34 2.72 -0.03 3.27 -0.40 4.77 -1.24 4.88 -0.53 0.08 -0.58 0 -0.45 -0.79 z "/>
 </g>
 <g fill="#ddebf7">
  <path d="M 144.62 140.48 c -0.08 -0.47 -0.13 -2.35 -0.08 -4.17 0.08 -3.24 0.08 -3.30 0.71 -3.38 0.58 -0.08 0.61 -0.03 0.45 0.74 -0.08 0.47 -0.16 2.37 -0.16 4.25 0 2.79 -0.08 3.40 -0.40 3.40 -0.21 0 -0.45 -0.34 -0.53 -0.84 z "/>
  <path d="M 267.52 129.57 c -0.08 -0.24 -0.16 -1 -0.16 -1.71 0 -1.66 -0.69 -8.25 -1.21 -11.71 -0.74 -4.83 -0.76 -5.41 -0.26 -5.41 0.24 0 0.42 0.16 0.42 0.37 0 0.32 0.66 0.76 0.87 0.61 0.34 -0.24 1 1.16 1.50 3.24 0.47 1.95 0.63 3.30 0.63 6.06 0.03 1.95 -0.05 4.03 -0.16 4.61 -0.11 0.58 -0.24 1.61 -0.24 2.32 -0.03 0.69 -0.16 1.24 -0.29 1.24 -0.11 0 -0.21 0.18 -0.21 0.40 0 0.53 -0.69 0.50 -0.90 -0.03 z "/>
  <path d="M 132.63 121.68 c 0 -3.98 0.08 -4.88 0.37 -4.88 0.55 0 0.69 0.87 0.69 4.88 0 4.01 -0.13 4.88 -0.69 4.88 -0.29 0 -0.37 -0.90 -0.37 -4.88 z "/>
  <path d="M 144.68 123.21 c -0.24 -0.21 -0.24 -22.94 -0.03 -23.73 0.11 -0.34 0.34 -0.61 0.53 -0.61 0.32 0 0.37 2 0.37 12.26 0 10.05 -0.05 12.26 -0.34 12.26 -0.21 0 -0.45 -0.08 -0.53 -0.18 z "/>
 </g>
 <g fill="#1492ec">
  <path d="M 130.39 268.76 c -5.06 -0.24 -14.63 -1.34 -14.63 -1.71 0 -0.11 -0.18 -0.21 -0.40 -0.21 -0.24 0 -0.32 -0.16 -0.21 -0.42 0.18 -0.50 1.92 -0.45 7.75 0.26 5.14 0.63 11.31 0.95 19.04 0.95 5.83 0 7.04 0.05 7.04 0.37 0 0.18 -0.26 0.45 -0.58 0.55 -0.61 0.21 -14.66 0.40 -18.01 0.21 z "/>
  <path d="M 123.13 259.69 c -5.83 -0.45 -9.12 -0.92 -13.45 -1.90 -3.01 -0.69 -3.96 -0.98 -3.96 -1.24 0 -0.16 -0.21 -0.26 -0.45 -0.26 -0.26 0 -0.76 -0.18 -1.13 -0.40 -0.37 -0.21 -0.98 -0.50 -1.34 -0.66 -0.40 -0.16 -0.76 -0.50 -0.84 -0.76 -0.08 -0.37 -1.13 -0.82 -3.90 -1.74 -10.28 -3.40 -20.59 -8.38 -29.37 -14.19 -4.38 -2.90 -7.41 -5.22 -12.52 -9.49 -2.64 -2.24 -2.77 -2.32 -2.85 -1.66 -0.08 0.58 -0.21 0.69 -0.92 0.69 -0.47 -0.03 -1.11 -0.16 -1.45 -0.37 -0.90 -0.47 -9.02 -8.62 -11.23 -11.21 -10.05 -11.89 -17.72 -24.23 -22.25 -35.83 -1.37 -3.53 -1.50 -3.88 -2.58 -7.49 -0.47 -1.66 -0.92 -2.56 -1.50 -3.16 -0.92 -0.95 -1.37 -1.77 -1.63 -2.98 -0.76 -3.77 -1 -5.96 -1 -9.52 0 -3.72 0.03 -4.03 0.55 -4.61 0.42 -0.45 0.58 -0.92 0.58 -1.85 0 -0.71 0.13 -1.29 0.32 -1.34 0.24 -0.08 0.21 -1.66 -0.05 -6.72 -1.56 -29.53 4.80 -54.24 19.96 -77.47 17.88 -27.37 46.17 -47.09 77.10 -53.76 10.02 -2.16 15.08 -2.66 27.13 -2.66 8.78 0.03 10.39 0.08 14.37 0.61 13.42 1.82 24.81 5.12 36.62 10.65 12.81 5.99 23.44 13.45 35.54 24.94 1.63 1.56 3.69 3.35 4.56 4.01 3.11 2.37 11.92 14.45 15.90 21.81 4.88 8.99 10.02 22.15 12.42 31.85 5.17 20.75 4.96 43.74 -0.61 63.83 -6.38 22.94 -19.46 44.09 -36.94 59.67 -20.20 17.96 -43.69 28.50 -70.40 31.54 -0.71 0.08 -3.08 0.26 -5.25 0.40 -3.53 0.21 -3.98 0.29 -4.56 0.84 -0.63 0.58 -0.79 0.61 -6.22 0.63 -3.08 0.03 -6.96 -0.05 -8.62 -0.18 z  m 18.48 -51.07 c 1.03 -0.53 1.63 -1.08 2.21 -2.03 l 0.79 -1.27 0.13 -17.82 0.13 -17.82 17.32 -0.08 17.35 -0.05 0.50 0.98 c 1.21 2.37 3.74 4.48 6.64 5.56 5.88 2.19 12.23 -0.47 15.13 -6.35 1.92 -3.93 1.74 -8.31 -0.50 -12.16 -0.95 -1.61 -3.64 -4.03 -5.35 -4.85 -1.29 -0.61 -1.95 -0.71 -4.35 -0.79 -2.32 -0.08 -3.11 0 -4.35 0.42 -3.61 1.29 -6.09 3.24 -7.49 6.01 -0.34 0.71 -0.74 1.37 -0.90 1.48 -0.13 0.11 -7.86 0.18 -17.14 0.13 l -16.88 -0.05 0 -13.45 0 -13.45 23.23 -0.08 23.23 -0.05 0.98 1.56 c 2.85 4.61 8.91 7.09 14.03 5.72 3.43 -0.90 6.93 -3.80 8.41 -6.88 0.74 -1.61 1.45 -4.43 1.45 -5.93 0 -1.53 -0.71 -4.35 -1.50 -5.96 -1.13 -2.32 -3.45 -4.67 -5.80 -5.83 -1.66 -0.82 -2.29 -0.98 -4.19 -1.08 -3.64 -0.18 -6.72 0.66 -8.99 2.48 -0.61 0.50 -1.21 0.90 -1.37 0.90 -0.42 0 -2.03 2.24 -2.82 3.98 l -0.74 1.56 -23.02 0 -23.02 0 0.05 -13.76 0.08 -13.79 17.17 -0.08 17.14 -0.05 1.05 1.61 c 2.66 4.14 8.12 6.62 12.81 5.77 4.61 -0.84 8.70 -4.40 10.20 -8.89 0.61 -1.82 0.74 -5.17 0.26 -7.20 -0.82 -3.59 -3.61 -7.07 -6.99 -8.73 -1.58 -0.79 -2.08 -0.90 -4.38 -0.98 -3.35 -0.13 -5.83 0.42 -7.70 1.74 -2.87 2 -3.85 3.01 -4.83 4.98 l -0.95 1.92 -16.98 0 -16.95 0 0 -14.34 c 0 -8.49 -0.11 -14.63 -0.26 -15.03 -0.42 -1.13 -2.08 -2.74 -3.32 -3.22 -1.05 -0.40 -1.87 -0.42 -7.17 -0.26 -5.64 0.16 -7.44 0.37 -12.58 1.29 -3.82 0.71 -10.18 2.32 -12.26 3.11 -0.79 0.29 -2 0.71 -2.69 0.92 -1.27 0.40 -5.01 1.95 -8.75 3.61 -1.13 0.50 -2.58 1.29 -3.19 1.74 -0.63 0.45 -1.27 0.82 -1.42 0.82 -0.29 0 -2.08 0.98 -2.66 1.48 -0.24 0.18 -1.48 1.03 -2.77 1.82 -4.38 2.77 -9.62 7.22 -13.58 11.55 -12.31 13.55 -19.09 31.11 -19.27 49.94 -0.05 4.06 -0.11 4.59 -0.55 4.98 -0.47 0.45 -0.47 0.47 0.03 0.92 0.34 0.34 0.55 1.13 0.79 3.06 0.50 4.06 1.29 8.38 2.16 11.68 2.61 9.86 7.78 20.04 14.45 28.48 2.77 3.51 8.78 9.47 12.55 12.47 14.50 11.60 33.14 18.22 51.57 18.35 4.32 0.03 4.43 0.03 5.80 -0.71 z "/>
  <path d="M 96.37 187.55 c -5.46 -3.40 -12 -9.18 -16.53 -14.58 -7.96 -9.49 -13.39 -22.12 -14.84 -34.49 -0.45 -3.77 -0.53 -7.17 -0.16 -7.17 0.13 0 1.58 0.29 3.24 0.63 1.63 0.34 4.11 0.84 5.51 1.08 l 2.50 0.45 0.34 4.40 c 0.40 5.64 0.87 8.83 2 13.39 3.30 13.50 9.41 25.02 18.17 34.28 2.21 2.32 3.01 3.51 2.35 3.51 -0.13 0 -1.27 -0.69 -2.58 -1.50 z  m -23.97 -45.54 c -0.08 -0.74 -0.16 -2.08 -0.16 -2.98 0 -1.82 -0.16 -2 -1.92 -2.27 l -1 -0.16 0.16 1.50 c 0.21 1.82 0.66 4.22 0.92 4.96 0.18 0.45 0.40 0.50 1.19 0.42 l 0.98 -0.11 -0.16 -1.37 z "/>
  <path d="M 132.36 142.65 c 0 -4.56 0.03 -4.75 0.53 -4.75 0.50 0 0.53 0.18 0.53 4.75 0 4.56 -0.03 4.75 -0.53 4.75 -0.50 0 -0.53 -0.18 -0.53 -4.75 z "/>
  <path d="M 87.88 81.03 c -0.90 -0.16 -0.74 -0.66 0.50 -1.61 0.98 -0.74 2.06 -1.11 2.06 -0.69 0 0.29 -1.61 2.48 -1.79 2.45 -0.11 -0.03 -0.45 -0.11 -0.76 -0.16 z "/>
 </g>
 <g fill="#1289e2">
  <path d="M 104.63 256.79 c -1.03 -0.24 -2.72 -1.27 -3.27 -2.03 -0.18 -0.24 -0.37 -0.82 -0.37 -1.29 0 -0.82 0 -0.84 0.82 -0.55 0.47 0.16 0.90 0.50 0.98 0.79 0.05 0.26 0.40 0.55 0.74 0.63 0.34 0.08 0.74 0.32 0.90 0.50 0.16 0.21 0.47 0.29 0.69 0.21 0.21 -0.08 0.37 0 0.37 0.16 0 0.16 0.24 0.29 0.53 0.29 0.29 0 0.53 0.11 0.53 0.26 0 0.13 0.29 0.32 0.66 0.42 0.37 0.08 0.66 0.32 0.66 0.53 0 0.42 -1.61 0.47 -3.22 0.08 z "/>
  <path d="M 51.34 228.42 c -0.21 -0.21 -0.24 -1.66 -0.03 -1.66 0.08 0 0.34 0.11 0.61 0.26 0.42 0.21 0.50 0.11 0.66 -0.79 0.08 -0.58 0.26 -1.05 0.37 -1.05 0.37 0 2.06 1.56 1.71 1.58 -0.18 0 -0.34 0.24 -0.34 0.53 0 0.29 -0.11 0.53 -0.26 0.53 -0.13 0 -0.26 0.18 -0.26 0.40 0 0.29 -0.29 0.40 -1.13 0.40 -0.63 0 -1.24 -0.08 -1.32 -0.18 z "/>
  <path d="M 76.25 184.04 c -2.64 -2.61 -5.06 -5.19 -5.43 -5.72 -0.34 -0.55 -0.87 -1.24 -1.16 -1.56 -0.50 -0.53 -1.48 -2.16 -1.50 -2.53 0 -0.08 -0.26 -0.47 -0.58 -0.82 -0.32 -0.37 -0.50 -0.74 -0.42 -0.82 0.11 -0.08 0.03 -0.16 -0.13 -0.16 -0.18 0 -0.32 -0.16 -0.32 -0.37 0 -0.21 -0.18 -0.45 -0.42 -0.53 -0.24 -0.11 -0.37 -0.24 -0.29 -0.32 0.05 -0.08 -0.16 -0.42 -0.50 -0.76 -0.34 -0.34 -0.69 -0.95 -0.79 -1.37 -0.11 -0.40 -0.32 -0.87 -0.47 -1.05 -0.16 -0.18 -0.42 -0.50 -0.61 -0.69 -0.37 -0.47 -2.19 -4.38 -2.19 -4.75 0 -0.16 -0.16 -0.47 -0.37 -0.69 -0.42 -0.50 -1 -2.14 -0.74 -2.14 0.11 0.03 1.16 2 2.35 4.43 3.77 7.70 9.15 15.16 15.35 21.25 1.77 1.74 3.14 3.19 3.08 3.24 -0.05 0.05 -2.24 -2.03 -4.85 -4.67 z "/>
  <path d="M 112.09 185.86 c -8.83 -6.35 -15.40 -14.55 -19.96 -24.89 -3.30 -7.49 -5.17 -15 -5.80 -23.26 l -0.18 -2.45 0.76 0 c 0.42 0 3.51 0.29 6.83 0.66 10.39 1.11 25.79 1.98 35.31 1.98 l 4.25 0 0.11 9.49 c 0.11 10.39 0.11 10.28 -1.48 10.28 -1.05 0 -1.40 -0.92 -1.42 -3.80 0 -2.29 -0.29 -6.46 -0.71 -10.18 l -0.18 -1.71 -3.30 -0.05 c -8.89 -0.18 -25.71 -1.13 -31.59 -1.82 -1.95 -0.21 -3.61 -0.34 -3.69 -0.26 -0.37 0.40 1.77 10.20 2.72 12.37 0.18 0.47 0.84 2.16 1.45 3.74 2.08 5.41 5.41 11.31 8.94 15.85 2.48 3.19 8.78 9.12 12.10 11.42 0.74 0.53 0.84 0.74 0.84 1.77 0 0.98 -0.08 1.16 -0.53 1.16 -0.34 0 -0.53 0.18 -0.53 0.50 0 0.50 -0.50 0.82 -1.27 0.82 -0.24 0 -1.45 -0.74 -2.66 -1.61 z "/>
  <path d="M 89.52 177.58 c -0.40 -0.50 -0.66 -1.05 -0.61 -1.24 0.05 -0.16 0.50 0.24 0.98 0.92 0.98 1.42 0.66 1.69 -0.37 0.32 z "/>
  <path d="M 14.24 172.18 c 0 -0.13 -0.21 -0.26 -0.45 -0.26 -1.19 -0.03 -2.24 -2.06 -2.82 -5.27 -1.21 -7.04 -2.11 -17.80 -1.53 -18.54 0.13 -0.18 0.32 -0.76 0.42 -1.29 0.11 -0.55 0.29 -1 0.42 -1 0.16 0 0.26 -0.24 0.26 -0.50 0 -0.29 0.13 -0.61 0.26 -0.69 0.16 -0.08 0.26 -0.42 0.26 -0.74 0 -0.32 0.18 -0.92 0.40 -1.34 0.21 -0.40 0.40 -1.32 0.40 -2.03 0 -0.95 0.11 -1.29 0.37 -1.29 0.50 0 0.61 0.74 0.84 4.88 0.34 6.12 0.32 6.88 -0.18 6.57 -0.34 -0.21 -0.29 0.26 0.08 0.63 0.26 0.26 0.26 0.40 -0.03 0.55 -0.21 0.13 -0.29 0.42 -0.21 0.63 0.08 0.21 -0.16 0.69 -0.50 1.08 -0.37 0.37 -0.55 0.69 -0.42 0.69 0.16 0 0.32 0.29 0.37 0.66 0.08 0.34 0.03 0.61 -0.13 0.58 -0.37 -0.08 -0.69 1.42 -0.45 2.08 0.11 0.26 0.11 0.71 -0.03 0.95 -0.16 0.29 -0.11 0.58 0.18 0.84 0.21 0.24 0.29 0.42 0.13 0.42 -0.16 0 -0.24 0.45 -0.13 1.13 0.05 0.61 0.18 1.63 0.26 2.29 0.05 0.66 0.18 1.42 0.24 1.71 0.08 0.29 0.18 0.90 0.29 1.32 0.21 1.16 0.66 2.03 1.48 2.82 0.71 0.71 1.69 2.32 1.40 2.32 -0.08 0 -0.03 0.24 0.13 0.53 0.26 0.47 0.21 0.53 -0.53 0.53 -0.42 0 -0.79 -0.11 -0.79 -0.26 z "/>
  <path d="M 84.30 168.54 c -1.05 -1.71 -1.61 -2.95 -1.29 -2.95 0.11 0 0.71 1 1.32 2.24 0.61 1.24 1.05 2.24 1 2.24 -0.05 0 -0.50 -0.69 -1.03 -1.53 z "/>
  <path d="M 58.19 154.85 c -0.08 -0.26 -0.26 -0.87 -0.40 -1.32 -0.42 -1.37 0.11 -1 0.58 0.37 0.50 1.45 0.50 1.40 0.18 1.40 -0.13 0 -0.29 -0.21 -0.37 -0.45 z "/>
  <path d="M 55.66 145.23 c -0.18 -0.47 -0.37 -1.56 -0.47 -2.37 -0.08 -0.84 -0.24 -1.53 -0.32 -1.53 -0.08 0 -0.18 -0.45 -0.24 -0.98 -0.03 -0.53 -0.16 -1.03 -0.26 -1.13 -0.11 -0.08 -0.18 -0.34 -0.21 -0.58 0 -0.26 -0.03 -0.82 -0.05 -1.24 -0.05 -0.69 -1.16 -2.24 -1.42 -1.98 -0.08 0.05 -0.13 -0.08 -0.13 -0.29 0 -0.21 0.11 -0.32 0.24 -0.24 0.18 0.13 0.34 -0.71 0.24 -1.29 -0.03 -0.13 0.08 -0.16 0.21 -0.08 0.13 0.08 0.37 0 0.50 -0.18 0.37 -0.42 0.29 -1.50 -0.08 -1.50 -0.13 0 -0.08 -0.13 0.13 -0.26 0.34 -0.21 0.32 -0.26 -0.08 -0.26 -0.45 0 -0.45 -0.03 -0.08 -0.42 0.32 -0.29 0.42 -1 0.45 -2.56 0.03 -1.19 0.08 -2.40 0.13 -2.69 0.03 -0.29 0.13 -1.24 0.21 -2.11 0.26 -2.72 0.84 -5.59 1.11 -5.35 0.05 0.08 -0.05 1.63 -0.29 3.45 -0.76 6.28 -0.55 14.79 0.55 21.62 0.45 2.69 0.40 3.48 -0.13 1.98 z "/>
  <path d="M 69.64 143.96 c -0.24 -0.71 -0.21 -0.79 0.26 -0.79 0.29 0 1.03 -0.24 1.61 -0.53 1.61 -0.76 1.79 -0.71 1.79 0.61 0 1.08 -0.03 1.13 -0.84 1.13 -0.47 -0.03 -1.24 0.08 -1.71 0.16 -0.74 0.18 -0.84 0.11 -1.11 -0.58 z "/>
  <path d="M 65.02 138.72 c -0.11 -0.13 -0.24 -1.87 -0.34 -3.85 l -0.16 -3.61 1.16 0.18 c 1.56 0.26 2.08 0.76 0.58 0.58 l -1.11 -0.13 0.11 3.53 c 0.05 1.95 0.05 3.53 0 3.53 -0.05 0 -0.16 -0.11 -0.24 -0.24 z "/>
  <path d="M 101.91 126.67 c -5.04 -0.40 -11.13 -1.05 -13.76 -1.48 l -1.90 -0.29 0.13 -1.74 c 0.53 -6.88 1.19 -11.34 2.45 -16.51 3.80 -15.40 12.26 -27.92 23.07 -34.15 5.99 -3.45 12.66 -5.54 20.41 -6.41 l 1.11 -0.13 0 23.28 c 0 17.14 -0.08 23.49 -0.32 23.99 -0.24 0.55 -0.47 0.66 -1.45 0.66 -0.61 0 -1.13 -0.11 -1.13 -0.26 0 -0.13 -0.21 -0.26 -0.47 -0.26 -0.45 0 -0.53 -0.32 -0.66 -2.56 -0.11 -1.42 -0.18 -10.94 -0.18 -21.15 l 0 -18.56 -1 0.16 c -1.79 0.29 -7.25 2.08 -9.44 3.08 -4.61 2.14 -8.02 4.43 -11.34 7.65 -8.12 7.88 -13.47 19.20 -15.90 33.64 -0.63 3.82 -0.74 5.30 -0.42 5.62 0.32 0.26 7.12 1 11.47 1.21 1.85 0.08 3.40 0.32 4.01 0.58 0.90 0.37 0.98 0.47 1.13 1.95 0.11 0.84 0.11 1.66 0 1.79 -0.18 0.34 -0.29 0.34 -5.80 -0.13 z "/>
  <path d="M 70.66 122.45 c -2.53 -0.47 -4.77 -0.90 -4.98 -0.90 -1.11 0 1.24 -10.47 3.82 -16.95 3.19 -8.04 9.02 -16.56 15.03 -21.94 2.98 -2.69 3.16 -2.79 4.35 -2.87 0.66 -0.05 0.95 0 0.71 0.13 -0.18 0.13 -0.34 0.32 -0.34 0.42 0 0.11 -0.63 1.27 -1.40 2.53 -6.46 10.84 -10.39 24.02 -11.29 37.84 -0.16 2.50 -0.21 2.69 -0.74 2.66 -0.32 0 -2.64 -0.42 -5.17 -0.92 z  m 1.95 -6.09 c 0.21 -2.43 0.53 -4.51 1.27 -8.17 0.29 -1.48 0.47 -2.85 0.42 -3.01 -0.18 -0.58 -2.66 6.49 -3.80 10.81 -0.53 2 -0.50 2.08 1.63 2.37 0.18 0 0.37 -0.76 0.47 -2 z "/>
  <path d="M 69.58 84.16 c 1.08 -1.61 1.87 -2.43 1.87 -1.95 0 0.29 -1.32 1.98 -1.66 2.14 -0.13 0.05 -0.32 0.37 -0.45 0.71 -0.13 0.34 -0.37 0.63 -0.53 0.63 -0.16 0 0.18 -0.69 0.76 -1.53 z "/>
  <path d="M 73.51 79.42 c 1 -1.24 3.38 -3.48 3.72 -3.48 0.13 0 -0.74 1 -1.95 2.24 -2.35 2.37 -3.06 2.90 -1.77 1.24 z "/>
 </g>
 <g fill="#127ed4">
  <path d="M 129.59 262.25 c -0.87 -0.18 -2.11 -0.58 -2.74 -0.90 -0.90 -0.45 -2 -0.63 -4.75 -0.84 -4.67 -0.37 -9.97 -1.16 -13.32 -1.98 -1.45 -0.34 -3.85 -0.90 -5.27 -1.19 -1.45 -0.29 -2.82 -0.71 -3.08 -0.95 -0.50 -0.45 -1.03 -2.27 -1.03 -3.51 l 0 -0.79 1.27 0.42 c 1.29 0.42 2 0.87 1.40 0.87 -0.24 0 -0.24 0.13 0.05 0.53 0.50 0.71 2.11 1.77 2.50 1.63 0.18 -0.05 0.32 0.03 0.32 0.16 0 0.13 0.87 0.40 1.92 0.55 1.03 0.18 2.66 0.50 3.61 0.71 1.58 0.40 4.88 1 6.72 1.29 3.03 0.47 8.96 0.79 14.42 0.79 4.80 0 4.93 -0.03 5.59 -0.63 0.58 -0.55 0.98 -0.63 3.61 -0.76 l 2.95 -0.13 -0.16 1.13 c -0.11 0.84 -0.42 1.40 -1.24 2.24 -1.27 1.29 -1.42 1.34 -7.65 1.56 -2.37 0.11 -4.09 0.03 -5.14 -0.21 z "/>
  <path d="M 52.50 229.24 c -0.61 -0.50 -0.82 -0.90 -0.82 -1.50 0 -0.61 0.08 -0.74 0.24 -0.47 0.32 0.50 1.08 0.61 1.08 0.13 0 -0.21 0.13 -0.37 0.29 -0.37 0.13 0 0.21 -0.11 0.13 -0.21 -0.05 -0.11 -0.03 -0.37 0.11 -0.58 0.29 -0.47 0.98 -0.13 2.77 1.45 l 1.32 1.19 -0.79 0 c -0.50 0 -0.95 0.21 -1.19 0.53 -0.55 0.79 -2.11 0.71 -3.14 -0.16 z "/>
  <path d="M 37.05 213.84 c -2.58 -2.32 -5.12 -5.35 -6.22 -7.38 -0.34 -0.66 -0.71 -1.21 -0.82 -1.27 -0.13 -0.05 -0.21 -0.26 -0.21 -0.45 0 -0.18 -0.11 -0.40 -0.21 -0.45 -0.58 -0.24 -1.90 -3.11 -1.90 -4.14 0 -0.58 0.11 -1.08 0.21 -1.08 0.13 0 1.24 1.50 2.48 3.38 2.03 3.03 3.53 5.06 7.41 10.05 l 1.27 1.61 -0.87 0 c -0.47 -0.03 -0.98 -0.13 -1.13 -0.26 z "/>
  <path d="M 132.36 194.41 c -5.35 -0.92 -12.76 -3.80 -17.98 -7.01 -1.82 -1.11 -2.19 -1.79 -0.63 -1.13 0.55 0.24 1.03 0.26 1.24 0.13 0.34 -0.21 0.16 -0.34 -0.34 -0.26 -0.11 0 -0.13 -0.16 -0.05 -0.37 0.13 -0.34 0.82 -0.53 1.50 -0.42 0.53 0.08 0.08 -0.79 -0.66 -1.32 -3.32 -2.29 -9.62 -8.23 -12.10 -11.42 -3.53 -4.54 -6.86 -10.44 -8.94 -15.85 -0.61 -1.58 -1.27 -3.27 -1.45 -3.74 -0.87 -1.98 -3.03 -11.81 -3.03 -13.68 0 -0.45 1.87 -0.47 4.48 -0.11 4.48 0.63 18.88 1.50 29 1.74 3.56 0.08 6.59 0.18 6.78 0.24 0.18 0.05 0.34 0.74 0.40 1.63 0.05 1.16 0.16 1.50 0.45 1.45 0.32 -0.08 0.32 0 0.03 0.32 -0.21 0.26 -0.24 0.53 -0.08 0.76 0.13 0.16 0.26 2.53 0.32 5.27 0.05 5.06 0.32 6.57 1.03 5.83 0.40 -0.42 0.42 -0.71 0.03 -0.47 -0.21 0.11 -0.21 0 0 -0.40 0.24 -0.42 0.24 -0.55 -0.03 -0.55 -0.21 0 -0.24 -0.08 -0.08 -0.21 0.16 -0.11 0.29 -0.47 0.29 -0.84 0.21 -3.32 0.40 -4.88 0.63 -5.12 0.18 -0.18 0.26 6.93 0.26 22.73 0 12.66 -0.08 22.97 -0.18 22.97 -0.13 -0.03 -0.50 -0.11 -0.87 -0.16 z "/>
  <path d="M 99.48 189.42 c -0.92 -0.50 -1.66 -1.05 -1.66 -1.19 0 -0.16 0.11 -0.18 0.26 -0.11 0.16 0.11 0.18 -0.03 0.08 -0.29 -0.08 -0.26 -0.05 -0.40 0.11 -0.34 0.42 0.16 3.32 2.87 3.06 2.87 -0.11 0 -0.95 -0.42 -1.85 -0.95 z "/>
  <path d="M 14.79 174.34 c -0.16 -0.40 -0.84 -1.05 -1.50 -1.48 -1.37 -0.87 -1.69 -1.50 -1.69 -3.35 0 -1.63 0.47 -1.69 1.19 -0.16 0.55 1.16 1.08 1.74 1.66 1.77 0.58 0 1.11 0.71 1.50 2.03 0.53 1.71 0.50 1.92 -0.24 1.92 -0.42 0 -0.71 -0.21 -0.92 -0.74 z "/>
  <path d="M 9.12 153.80 c -0.08 -0.84 -0.24 -4.11 -0.32 -7.28 -0.18 -5.51 -0.16 -5.75 0.34 -6.20 0.92 -0.79 1.13 -1.56 1.13 -4.06 0.03 -3.24 0.90 -6.62 1.79 -6.75 l 0.58 -0.08 0 6.57 c 0 5.17 -0.08 6.75 -0.37 7.30 -0.21 0.40 -0.32 0.90 -0.24 1.11 0.08 0.18 -0.08 0.61 -0.32 0.87 -0.26 0.29 -0.34 0.53 -0.18 0.53 0.16 0 0.24 0.18 0.16 0.40 -0.11 0.21 -0.34 0.40 -0.55 0.40 -0.21 0 -0.32 0.11 -0.21 0.24 0.08 0.13 0.03 0.32 -0.13 0.42 -0.13 0.08 -0.26 0.45 -0.26 0.79 0 0.34 -0.11 0.69 -0.24 0.79 -0.16 0.08 -0.18 1.48 -0.11 3.30 0.13 3.03 0.13 3.16 -0.37 3.16 -0.47 0 -0.55 -0.24 -0.71 -1.50 z "/>
  <path d="M 88.59 151.48 c 0 -0.13 -0.13 -0.76 -0.24 -1.37 -0.13 -0.61 -0.13 -1.05 0 -0.98 0.29 0.16 0.58 1.82 0.42 2.27 -0.08 0.18 -0.16 0.24 -0.18 0.08 z "/>
  <path d="M 69.66 143.78 c -0.42 -0.79 -0.82 -3.08 -1 -5.72 -0.11 -1.40 -0.13 -2.53 -0.08 -2.53 0.58 0 4.03 0.79 4.19 0.98 0.11 0.11 0.26 1.63 0.29 3.38 l 0.11 3.16 -0.92 0.42 c -1.61 0.74 -2.32 0.82 -2.58 0.32 z "/>
  <path d="M 86.38 138.14 c -0.24 -1.27 -0.18 -2.87 0.11 -2.87 0.16 0 0.26 0.24 0.26 0.53 0 0.32 0.18 0.53 0.47 0.55 0.37 0 0.37 0.05 0.05 0.18 -0.55 0.26 -0.61 0.84 -0.05 0.87 0.24 0 0.32 0.08 0.13 0.13 -0.18 0.08 -0.26 0.29 -0.18 0.47 0.08 0.18 -0.03 0.47 -0.24 0.66 -0.32 0.24 -0.42 0.16 -0.55 -0.53 z "/>
  <path d="M 118.65 127.59 c -10.31 -0.37 -22.94 -1.29 -25.37 -1.85 -0.69 -0.16 -1.40 -0.18 -1.58 -0.08 -0.24 0.16 -0.24 0.08 0.03 -0.26 0.29 -0.34 0.58 -0.40 1.19 -0.26 1.05 0.24 2.37 0.16 2.48 -0.16 0.05 -0.16 0.26 -0.08 0.50 0.13 0.21 0.21 0.50 0.32 0.66 0.24 0.16 -0.11 0.34 -0.05 0.45 0.13 0.37 0.55 8.96 1.03 9.31 0.47 0.16 -0.24 0.21 -0.24 0.21 0.03 0 0.18 0.13 0.26 0.29 0.18 0.18 -0.13 0.11 -0.37 -0.21 -0.71 -0.34 -0.40 -0.40 -0.58 -0.13 -0.66 0.16 -0.08 0.32 -0.24 0.32 -0.37 0 -0.11 -0.18 -0.13 -0.45 -0.05 -0.29 0.11 -0.37 0.08 -0.24 -0.13 0.18 -0.32 -0.08 -0.42 -1.03 -0.34 -0.45 0.05 -0.47 0 -0.13 -0.24 0.32 -0.21 0.18 -0.26 -0.53 -0.26 -1.16 0.03 -6.46 -0.26 -7.51 -0.37 -0.42 -0.05 -2.03 -0.26 -3.56 -0.42 -1.53 -0.18 -2.93 -0.47 -3.14 -0.66 -0.29 -0.26 -0.29 -0.82 -0.05 -3.06 0.16 -1.50 0.37 -3.08 0.45 -3.53 2.03 -11.58 5.25 -20.04 10.39 -27.45 2.27 -3.22 3.14 -4.27 5.64 -6.70 4.61 -4.48 9.99 -7.57 16.64 -9.60 2.58 -0.79 5.59 -1.48 6.51 -1.48 0.11 0 0.21 9.49 0.26 21.07 0.08 18.64 0.18 22.52 0.66 21.20 0.13 -0.37 0.63 -0.47 0.58 -0.13 -0.18 1.05 0.63 1.16 1.03 0.13 0.16 -0.42 0.34 -1.50 0.42 -2.45 0.08 -0.92 0.29 -1.82 0.42 -1.95 0.18 -0.18 0.26 3.14 0.26 9.81 l 0 10.07 -4.54 -0.05 c -2.50 0 -7.12 -0.13 -10.23 -0.24 z "/>
  <path d="M 71.46 119.15 c -2.53 -0.47 -2.43 -0.40 -2.24 -1.63 0.37 -2.45 1.95 -7.67 3.51 -11.58 1.08 -2.66 2.29 -4.80 3.27 -5.64 0.55 -0.50 0.55 -0.50 0.40 0.16 -0.21 0.84 -1.03 4.83 -1.74 8.44 -0.61 3.16 -1.03 5.91 -1.29 8.54 -0.11 1 -0.29 1.85 -0.45 1.90 -0.13 0.03 -0.79 -0.05 -1.45 -0.18 z "/>
 </g>
 <g fill="#0e6fc7">
  <path d="M 129.59 263.14 c -0.87 -0.13 -2.29 -0.37 -3.16 -0.50 -2.61 -0.45 -6.96 -1.05 -9.89 -1.34 -1.53 -0.18 -3.48 -0.50 -4.35 -0.71 -0.87 -0.21 -2.06 -0.50 -2.64 -0.61 -0.58 -0.11 -1.95 -0.50 -3.03 -0.87 -1.08 -0.37 -2.45 -0.79 -3.03 -0.92 -2.24 -0.55 -3.45 -1.16 -4.27 -2.08 -0.47 -0.53 -0.87 -1.11 -0.87 -1.27 0 -0.18 -0.42 -0.53 -0.92 -0.82 -0.50 -0.26 -0.92 -0.55 -0.92 -0.66 0 -0.16 -1.37 -0.47 -4.22 -1.03 -0.79 -0.16 -2.19 -0.63 -3.08 -1.05 -0.90 -0.45 -1.74 -0.79 -1.87 -0.79 -0.45 0 -4.11 -1.61 -4.98 -2.19 -0.47 -0.32 -0.87 -0.69 -0.87 -0.82 0 -0.13 -0.18 -0.37 -0.40 -0.53 -0.21 -0.16 -0.47 -0.84 -0.55 -1.53 l -0.18 -1.24 3.27 1.58 c 3.96 1.95 10.47 4.61 14.13 5.80 1.48 0.47 2.64 0.95 2.56 1.05 -0.21 0.37 0.47 2.56 0.92 2.98 0.26 0.24 1.63 0.66 3.08 0.95 1.42 0.29 3.82 0.84 5.27 1.19 3.35 0.82 8.65 1.61 13.32 1.98 2.72 0.21 3.85 0.40 4.75 0.84 2.35 1.16 5.93 1.45 10.92 0.87 1.66 -0.18 1.95 -0.29 2.95 -1.24 1.24 -1.21 1.56 -1.95 0.92 -2.29 -0.29 -0.16 0.13 -0.29 1.42 -0.42 1 -0.08 2.29 -0.24 2.85 -0.29 0.69 -0.11 1.11 -0.03 1.24 0.21 0.32 0.47 0.29 2.06 0 2.06 -0.13 0 -0.34 0.24 -0.42 0.53 -0.08 0.29 -0.32 0.53 -0.50 0.53 -0.18 0 -0.50 0.29 -0.69 0.66 -0.18 0.37 -0.45 0.66 -0.55 0.66 -0.11 0 -0.37 0.16 -0.58 0.37 -0.21 0.21 -1.32 0.50 -2.45 0.66 -2.79 0.40 -11.21 0.58 -13.16 0.29 z "/>
  <path d="M 54.45 230.50 c -0.63 -0.16 -0.82 -0.34 -0.87 -0.92 -0.08 -0.63 0 -0.74 0.40 -0.61 0.32 0.11 0.63 -0.03 0.87 -0.37 0.61 -0.87 1.79 -0.66 3.16 0.50 0.66 0.58 1.13 1.08 1.05 1.16 -0.24 0.24 -3.82 0.40 -4.61 0.24 z "/>
  <path d="M 38.31 215.84 c -0.34 -0.16 -0.61 -0.37 -0.61 -0.47 0 -0.13 -0.18 -0.21 -0.40 -0.21 -0.42 0 -2.64 -2.19 -4.35 -4.25 -0.50 -0.61 -1.05 -1.24 -1.19 -1.40 -0.16 -0.16 -0.61 -0.95 -1.03 -1.74 -0.42 -0.79 -0.90 -1.63 -1.08 -1.85 -0.18 -0.21 -0.95 -1.63 -1.71 -3.16 -0.76 -1.50 -1.82 -3.40 -2.35 -4.22 -0.55 -0.79 -1.32 -2.16 -1.71 -3.03 -0.42 -0.87 -1.27 -2.64 -1.90 -3.93 -1.19 -2.35 -1.56 -4.38 -0.82 -4.38 0.18 0 0.90 1.16 1.61 2.56 0.69 1.42 2.27 4.22 3.48 6.22 1.21 2 2.21 3.82 2.21 4.06 0 0.47 1.56 3.32 1.90 3.45 0.11 0.05 0.21 0.26 0.21 0.45 0 0.18 0.08 0.40 0.21 0.45 0.11 0.05 0.47 0.61 0.82 1.27 0.79 1.45 1.87 2.87 3.53 4.64 0.69 0.74 1.42 1.56 1.61 1.82 0.21 0.32 0.47 0.40 0.71 0.26 0.21 -0.13 0.29 -0.13 0.18 0 -0.11 0.11 0.26 0.61 0.82 1.11 0.58 0.50 1.34 1.32 1.74 1.79 l 0.69 0.92 -1 -0.03 c -0.55 -0.03 -1.27 -0.16 -1.58 -0.34 z "/>
  <path d="M 16.88 180.56 c -2.29 -4.96 -2.95 -6.22 -3.82 -7.17 -0.69 -0.74 -0.92 -1.24 -0.92 -1.90 0 -0.50 0.13 -0.90 0.26 -0.90 0.16 0 0.26 0.11 0.26 0.26 0 0.13 0.58 0.66 1.32 1.11 0.71 0.47 1.45 1.19 1.61 1.61 0.16 0.40 0.40 0.71 0.53 0.71 0.13 0 0.24 0.16 0.24 0.34 0 0.29 0.37 1.32 2.19 6.06 l 0.69 1.77 -0.74 0 c -0.63 0 -0.82 -0.21 -1.61 -1.90 z "/>
  <path d="M 8.83 155.25 c -0.50 -3.03 -0.69 -12.34 -0.26 -15.11 0.16 -1.03 1.21 -2.24 1.95 -2.24 1 0 0.66 2.14 -0.55 3.19 -0.42 0.37 -0.47 0.84 -0.47 3.69 0 2.98 0.24 6.22 0.69 9.94 0.16 1.34 0.16 1.37 -0.50 1.37 -0.58 0 -0.71 -0.16 -0.84 -0.84 z "/>
  <path d="M 10.34 132.44 c 0.16 -3.24 0.66 -4.56 1.71 -4.56 0.71 0 0.74 0.05 0.66 1.13 -0.05 0.61 -0.21 1.24 -0.32 1.37 -0.11 0.16 -0.47 1.24 -0.79 2.45 -0.40 1.50 -0.71 2.16 -0.98 2.16 -0.34 0 -0.40 -0.40 -0.29 -2.56 z "/>
 </g>
 <g fill="#2767a9">
 </g>
 <g fill="#0d63bb">
  <path d="M 129.20 268.15 c -1.82 -0.13 -4.96 -0.42 -6.99 -0.66 -2.03 -0.24 -4.40 -0.50 -5.27 -0.55 -1.82 -0.11 -8.52 -1.50 -13.84 -2.90 -16.24 -4.25 -32.48 -12.18 -46.35 -22.65 -5.93 -4.46 -8.60 -6.80 -14.69 -12.92 -7.80 -7.80 -13.29 -14.61 -18.98 -23.60 -12.26 -19.35 -19.64 -43.06 -20.57 -66.05 -0.42 -10.31 1.24 -24.89 4.22 -36.78 8.02 -32.09 27.21 -59.54 54.98 -78.63 11.29 -7.78 25.44 -14.32 38.89 -17.98 7.07 -1.95 10.65 -2.66 18.59 -3.72 6.86 -0.95 21.67 -1.21 28.21 -0.55 22.33 2.35 41.37 8.99 59.72 20.94 21.54 14 39.31 34.80 49.68 58.09 2.98 6.75 5.72 14.74 7.51 21.91 5.48 22.02 5.46 43.56 0 64.81 -1 3.82 -3.64 12.05 -4.90 15.29 -5.38 13.66 -13.18 26.66 -23.12 38.47 -4.61 5.51 -15.58 16.35 -17.11 16.93 -0.24 0.11 -1.74 1.34 -3.35 2.77 -2.82 2.56 -6.99 5.80 -9.36 7.36 -0.66 0.42 -1.48 1.03 -1.85 1.34 -1 0.87 -5.48 3.32 -6.91 3.77 -0.53 0.18 -1.11 0.47 -1.27 0.69 -0.16 0.21 -1.08 0.63 -2 0.92 -0.95 0.32 -2.40 0.92 -3.22 1.34 -0.82 0.42 -1.61 0.76 -1.71 0.76 -0.11 0 -1.08 0.42 -2.19 0.95 -6.67 3.16 -19.51 7.17 -30.56 9.57 -1.45 0.32 -3.11 0.71 -3.69 0.87 -1.29 0.34 -19.09 0.50 -23.86 0.21 z  m 12.60 -6.06 c 1.63 -0.21 2.37 -0.45 2.69 -0.79 0.26 -0.29 0.50 -0.45 0.58 -0.40 0.05 0.08 0.29 -0.16 0.47 -0.53 0.18 -0.37 0.53 -0.66 0.71 -0.66 0.21 0 0.32 -0.11 0.24 -0.21 -0.08 -0.13 0.11 -0.40 0.37 -0.58 0.47 -0.34 0.47 -0.42 0.11 -0.98 -0.47 -0.76 -0.82 -0.66 4.64 -1.37 32.72 -4.32 64.26 -23.57 83.90 -51.21 12 -16.85 19.49 -35.75 22.07 -55.61 2.45 -18.83 0.66 -37.28 -5.35 -55.24 -2.53 -7.49 -6.41 -16.56 -9.70 -22.62 -3.98 -7.36 -12.79 -19.43 -15.90 -21.81 -0.87 -0.66 -2.93 -2.45 -4.56 -4.01 -12.10 -11.50 -22.73 -18.96 -35.54 -24.94 -11.81 -5.54 -23.23 -8.83 -36.62 -10.63 -3.90 -0.53 -5.64 -0.61 -13.58 -0.63 -9.62 0 -12.45 0.18 -19.35 1.34 -13.18 2.19 -24.36 5.83 -35.89 11.71 -35.75 18.25 -61.09 53.10 -67 92.13 -0.53 3.56 -1.16 9.70 -1.16 11.52 0 1.19 -0.13 1.61 -0.63 2.16 -0.87 0.95 -1.21 2.79 -1.21 6.54 0 3.14 0 3.14 -0.79 3.98 -0.45 0.45 -0.79 0.95 -0.82 1.11 0 0.16 -0.05 0.53 -0.13 0.82 -0.16 0.90 -0.16 9.44 0.03 10.68 0.21 1.50 0.34 2.66 0.37 3.11 0.03 0.18 0.13 0.29 0.24 0.21 0.13 -0.08 0.55 2.21 0.95 5.06 1.32 9.36 1.71 11 2.93 12.37 0.87 0.92 1.77 2.58 3.72 6.91 0.42 0.92 0.90 1.85 1.08 2 0.50 0.53 3.16 6.30 3.06 6.64 -0.13 0.40 1.05 2.64 1.69 3.14 0.26 0.24 0.32 0.34 0.16 0.24 -0.18 -0.08 -0.34 -0.11 -0.34 -0.03 0 0.40 2.32 4.96 3.16 6.22 0.55 0.79 1.50 2.45 2.11 3.69 0.63 1.24 1.21 2.29 1.29 2.37 0.08 0.08 0.18 0.29 0.24 0.47 0.08 0.42 1.11 1.95 1.50 2.21 0.16 0.11 0.16 0.21 0.05 0.21 -0.21 0 0.50 1.45 1 2 0.16 0.16 0.69 0.79 1.19 1.40 1.71 2.06 3.93 4.25 4.35 4.25 0.21 0 0.40 0.11 0.40 0.21 0 0.13 0.42 0.40 0.95 0.58 0.53 0.21 1.19 0.69 1.48 1.05 1.21 1.56 10.65 10.86 12.63 12.47 1.29 1.03 2.37 1.27 3.35 0.74 0.47 -0.26 0.69 -0.26 1 0 0.21 0.16 0.37 0.24 0.37 0.13 0 -0.08 1.16 0.76 2.58 1.90 5.70 4.56 13.21 9.52 17.98 11.92 2.06 1.03 2.64 1.50 2.64 2.16 0 0.26 0.18 0.55 0.40 0.63 0.21 0.11 0.40 0.29 0.40 0.42 0 0.16 0.21 0.45 0.47 0.66 0.61 0.50 3.77 1.95 4.35 2 0.24 0.03 0.45 0.11 0.45 0.18 0 0.11 0.16 0.18 0.34 0.18 0.16 0 1.08 0.37 2.03 0.82 0.95 0.45 2.37 0.95 3.16 1.11 2.85 0.55 4.22 0.87 4.22 1.03 0 0.11 0.42 0.40 0.92 0.66 0.50 0.29 0.92 0.66 0.92 0.84 0 0.18 0.47 0.84 1.05 1.45 0.74 0.79 1.19 1.05 1.58 0.95 0.29 -0.08 0.53 -0.05 0.53 0.08 0 0.29 1.98 1.05 2.72 1.05 0.32 0 1.42 0.32 2.43 0.69 1.03 0.40 2.32 0.79 2.90 0.90 0.58 0.13 1.42 0.29 1.85 0.40 0.45 0.11 0.92 0.21 1.05 0.24 0.16 0.03 0.42 0.13 0.61 0.24 0.18 0.13 0.32 0.08 0.32 -0.13 0 -0.26 0.05 -0.26 0.21 -0.03 0.11 0.16 0.90 0.34 1.77 0.37 0.87 0.05 1.69 0.13 1.82 0.18 0.11 0.08 0.82 0.16 1.58 0.21 1.79 0.13 2.90 0.29 4.64 0.63 2.14 0.42 4.40 0.79 6.20 1 2.27 0.26 8.75 0.16 11.42 -0.21 z "/>
 </g>
</svg>