<svg xmlns="http://www.w3.org/2000/svg" width="270" height="270" viewBox="0 0 270 270">
<g>
<path d="M 146.90 263.97 C140.63,264.53 135.05,264.92 134.50,264.85 C133.95,264.77 129.23,264.37 124.00,263.96 C93.42,261.55 65.12,248.24 42.39,225.58 C16.55,199.83 4.00,170.08 4.00,134.64 C4.01,114.14 6.92,99.45 14.38,82.19 C31.19,43.33 63.56,16.71 106.00,6.84 C117.25,4.22 143.06,3.25 154.91,4.99 C173.71,7.76 194.90,16.04 211.50,27.11 C221.41,33.72 236.78,48.99 243.73,59.13 C253.62,73.57 261.11,91.54 265.15,110.50 C267.14,119.82 266.89,148.69 264.74,158.66 C257.68,191.35 240.13,218.95 214.00,238.44 C193.87,253.44 172.05,261.75 146.90,263.97 ZM 123.48 208.01 C126.24,208.42 131.54,208.81 135.26,208.88 C145.33,209.06 145.39,208.95 146.00,187.22 L 146.50 169.50 L 162.69 169.20 C178.27,168.92 178.92,168.99 180.00,171.01 C182.80,176.23 191.25,178.48 196.96,175.52 C201.94,172.94 204.00,169.36 204.00,163.25 C204.00,158.21 203.68,157.45 200.12,153.88 C196.79,150.56 195.61,150.00 191.87,150.00 C187.07,150.01 181.79,152.66 180.03,155.95 C178.99,157.89 178.05,158.00 162.46,158.00 L 146.00 158.00 L 146.00 134.00 L 168.88 134.00 C188.42,134.00 191.94,134.23 193.05,135.57 C195.25,138.21 199.70,140.00 204.07,140.00 C207.58,140.00 208.85,139.39 212.12,136.12 C215.59,132.65 216.00,131.71 216.00,127.27 C216.00,113.94 201.78,108.65 192.96,118.69 L 189.74 122.36 L 146.50 122.50 L 145.94 96.00 L 179.13 96.00 L 181.64 98.98 C187.06,105.42 195.02,105.16 201.00,98.34 C203.39,95.63 204.00,94.00 204.00,90.42 C204.00,82.56 200.85,78.66 193.09,76.91 C188.83,75.95 184.16,77.72 181.27,81.38 L 179.21 84.00 L 146.00 84.00 L 146.00 70.19 C146.00,57.40 145.84,56.20 143.83,54.05 C141.77,51.84 141.19,51.75 132.58,52.33 C117.85,53.31 102.47,57.96 90.22,65.15 C82.07,69.93 67.23,85.07 63.18,92.75 C56.57,105.28 54.81,112.13 54.29,127.50 C53.87,139.62 54.09,142.55 55.93,149.32 C64.21,179.88 91.11,203.25 123.48,208.01 ZM 132.86 99.93 L 132.65 126.00 L 117.57 125.86 C103.19,125.73 88.36,124.70 87.42,123.75 C86.47,122.80 89.28,107.10 91.68,100.00 C95.00,90.18 98.89,84.17 106.28,77.49 C112.56,71.80 120.14,68.17 127.62,67.27 C131.67,66.78 131.75,66.83 132.40,70.32 C132.77,72.27 132.97,85.59 132.86,99.93 ZM 132.50 165.64 C132.50,167.90 132.50,169.98 132.51,171.90 C132.54,186.64 132.55,191.88 130.50,192.87 C129.37,193.42 127.61,192.66 124.88,191.49 C124.24,191.21 123.54,190.91 122.78,190.60 C102.32,182.19 90.49,165.76 87.47,141.58 L 86.73 135.68 L 96.11 136.36 C101.28,136.73 111.57,137.32 119.00,137.66 L 132.50 138.29 ZM 93.03 181.75 C95.81,185.19 97.95,188.00 97.78,188.00 C97.61,188.00 95.23,186.49 92.49,184.63 C77.74,174.68 65.86,154.55 64.25,136.78 C63.77,131.57 63.92,130.75 65.22,131.25 C66.06,131.58 68.77,132.14 71.24,132.51 L 75.74 133.19 L 76.42 139.84 C78.06,156.09 83.63,170.14 93.03,181.75 ZM 77.00 118.46 C77.00,121.49 76.68,121.99 74.75,121.90 C71.76,121.76 66.05,120.39 65.28,119.62 C64.20,118.53 68.03,106.73 71.82,99.52 C75.22,93.05 87.07,79.00 89.13,79.00 C89.62,79.00 88.85,80.86 87.42,83.13 C82.37,91.12 77.00,109.34 77.00,118.46 Z" fill="rgb(73,196,252)"/>
<path d="M 0.00 135.00 L 0.00 0.00 L 135.00 0.00 L 270.00 0.00 L 270.00 135.00 L 270.00 270.00 L 135.00 270.00 L 0.00 270.00 L 0.00 135.00 ZM 146.90 263.97 C172.05,261.75 193.87,253.44 214.00,238.44 C240.13,218.95 257.68,191.35 264.74,158.66 C266.89,148.69 267.14,119.82 265.15,110.50 C261.11,91.54 253.62,73.57 243.73,59.13 C236.78,48.99 221.41,33.72 211.50,27.11 C194.90,16.04 173.71,7.76 154.91,4.99 C143.06,3.25 117.25,4.22 106.00,6.84 C63.56,16.71 31.19,43.33 14.38,82.19 C6.92,99.45 4.01,114.14 4.00,134.64 C4.00,170.08 16.55,199.83 42.39,225.58 C65.12,248.24 93.42,261.55 124.00,263.96 C129.23,264.37 133.95,264.77 134.50,264.85 C135.05,264.92 140.63,264.53 146.90,263.97 ZM 123.48 208.01 C91.11,203.25 64.21,179.88 55.93,149.32 C54.09,142.55 53.87,139.62 54.29,127.50 C54.81,112.13 56.57,105.28 63.18,92.75 C67.23,85.07 82.07,69.93 90.22,65.15 C102.47,57.96 117.85,53.31 132.58,52.33 C141.19,51.75 141.77,51.84 143.83,54.05 C145.84,56.20 146.00,57.40 146.00,70.19 L 146.00 84.00 L 162.61 84.00 L 179.21 84.00 L 181.27 81.38 C184.16,77.72 188.83,75.95 193.09,76.91 C200.85,78.66 204.00,82.56 204.00,90.42 C204.00,94.00 203.39,95.63 201.00,98.34 C195.02,105.16 187.06,105.42 181.64,98.98 L 179.13 96.00 L 162.54 96.00 L 145.94 96.00 L 146.22 109.25 L 146.50 122.50 L 168.12 122.43 L 189.74 122.36 L 192.96 118.69 C201.78,108.65 216.00,113.94 216.00,127.27 C216.00,131.71 215.59,132.65 212.12,136.12 C208.85,139.39 207.58,140.00 204.07,140.00 C199.70,140.00 195.25,138.21 193.05,135.57 C191.94,134.23 188.42,134.00 168.88,134.00 L 146.00 134.00 L 146.00 146.00 L 146.00 158.00 L 162.46 158.00 C178.05,158.00 178.99,157.89 180.03,155.95 C181.79,152.66 187.07,150.01 191.87,150.00 C195.61,150.00 196.79,150.56 200.12,153.88 C203.68,157.45 204.00,158.21 204.00,163.25 C204.00,169.36 201.94,172.94 196.96,175.52 C191.25,178.48 182.80,176.23 180.00,171.01 C178.92,168.99 178.27,168.92 162.69,169.20 L 146.50 169.50 L 146.00 187.22 C145.39,208.95 145.33,209.06 135.26,208.88 C131.54,208.81 126.24,208.42 123.48,208.01 ZM 132.50 165.64 L 132.50 138.29 L 119.00 137.66 C111.57,137.32 101.28,136.73 96.11,136.36 L 86.73 135.68 L 87.47 141.58 C90.49,165.76 102.32,182.19 122.78,190.60 C133.31,194.93 132.50,197.01 132.50,165.64 ZM 93.03 181.75 C83.63,170.14 78.06,156.09 76.42,139.84 L 75.74 133.19 L 71.24 132.51 C68.77,132.14 66.06,131.58 65.22,131.25 C63.92,130.75 63.77,131.57 64.25,136.78 C65.86,154.55 77.74,174.68 92.49,184.63 C95.23,186.49 97.61,188.00 97.78,188.00 C97.95,188.00 95.81,185.19 93.03,181.75 ZM 132.86 99.93 C132.97,85.59 132.77,72.27 132.40,70.32 C131.75,66.83 131.67,66.78 127.62,67.27 C120.14,68.17 112.56,71.80 106.28,77.49 C98.89,84.17 95.00,90.18 91.68,100.00 C89.28,107.10 86.47,122.80 87.42,123.75 C88.36,124.70 103.19,125.73 117.57,125.86 L 132.65 126.00 L 132.86 99.93 ZM 77.00 118.46 C77.00,109.34 82.37,91.12 87.42,83.13 C88.85,80.86 89.62,79.00 89.13,79.00 C87.07,79.00 75.22,93.05 71.82,99.52 C68.03,106.73 64.20,118.53 65.28,119.62 C66.05,120.39 71.76,121.76 74.75,121.90 C76.68,121.99 77.00,121.49 77.00,118.46 Z" fill="rgb(250,253,253)"/>
</g>
</svg>